<svg viewBox="0 0 24 24" xmlns="http://www.w3.org/2000/svg" fill="currentColor">
    <path d="M19.14 12.94c.04-.31.07-.63.07-.94s-.03-.63-.07-.94l2.03-1.58c.18-.14.23-.41.11-.61l-1.92-3.32a.5.5 0 00-.6-.22l-2.39.96a6.992 6.992 0 00-1.63-.94l-.36-2.54a.5.5 0 00-.5-.42h-3.84a.5.5 0 00-.5.42l-.36 2.54c-.59.23-1.14.55-1.63.94l-2.39-.96a.5.5 0 00-.6.22l-1.92 3.32c-.12.2-.07.46.11.61l2.03 1.58c-.04.31-.07.63-.07.94s.03.63.07.94l-2.03 1.58a.5.5 0 00-.11.61l1.92 3.32c.14.24.41.32.6.22l2.39-.96c.49.39 1.04.71 1.63.94l.36 2.54c.05.26.26.42.5.42h3.84c.24 0 .45-.16.5-.42l.36-2.54c.59-.23 1.14-.55 1.63-.94l2.39.96c.19.1.46.02.6-.22l1.92-3.32a.5.5 0 00-.11-.61l-2.03-1.58zM12 15.5a3.5 3.5 0 110-7 3.5 3.5 0 010 7z"/>
</svg>
